<?xml version="1.0" ?><svg viewBox="0 0 48 48" xmlns="http://www.w3.org/2000/svg"><title/><g id="Patient"><path d="M12.07,21a9,9,0,0,0,17.86,0A3,3,0,1,0,30,15a9.41,9.41,0,0,1-5.93-2.08C20.41,15.64,14.22,15,12,15a3,3,0,1,0,.07,6ZM24,16a1,1,0,0,1,1,1,1,1,0,0,0,1,1,1,1,0,0,1,0,2C23,20,22.08,16,24,16Zm.55,8.17a1,1,0,0,1-1.1,1.66,4.67,4.67,0,0,0-4.9,0,1,1,0,0,1-1.1-1.66A6.57,6.57,0,0,1,24.55,24.17ZM16,18a1,1,0,0,0,1-1,1,1,0,0,1,1-1c1.9,0,1,4-2,4A1,1,0,0,1,16,18Z"/><path d="M25.12,35.35A6,6,0,0,1,15,31.7l-6.6,2.36A10,10,0,0,0,2,41.69L1,47H30.38A12,12,0,0,1,25.12,35.35Z"/><path d="M17,30.24a4.35,4.35,0,0,0,1.17,3.59A4,4,0,0,0,25,31v-.76A10.94,10.94,0,0,1,17,30.24Z"/><path d="M24,10a7.5,7.5,0,0,0,6,3h1c0-3.06.11-6-2.93-9.07A10,10,0,0,0,11,11v2C14.07,13,22.12,13.76,24,10Z"/><path d="M37,27A10,10,0,1,0,47,37,10,10,0,0,0,37,27Zm5,12H39v3H35V39H32V35h3V32h4v3h3Z"/></g></svg>